<?xml version="1.0" standalone="no"?>
<!DOCTYPE svg PUBLIC "-//W3C//DTD SVG 20010904//EN"
 "http://www.w3.org/TR/2001/REC-SVG-20010904/DTD/svg10.dtd">
<svg version="1.0" xmlns="http://www.w3.org/2000/svg"
 width="100.000000pt" height="96.000000pt" viewBox="0 0 100.000000 96.000000"
 preserveAspectRatio="xMidYMid meet">

<g transform="translate(0.000000,96.000000) scale(0.100000,-0.100000)"
fill="#000000" stroke="none">
<path d="M520 773 c0 -4 23 -23 51 -41 28 -19 48 -29 45 -23 -10 16 -96 73
-96 64z"/>
<path d="M647 565 c-21 -41 -37 -79 -37 -83 0 -5 10 -17 23 -28 12 -10 19 -15
14 -9 -4 5 16 33 45 62 43 44 54 50 67 40 19 -14 -42 65 -62 81 -11 10 -21 -2
-50 -63z"/>
<path d="M270 515 c-29 -30 -58 -51 -64 -48 -12 8 33 -55 76 -105 l28 -32 40
80 41 81 -32 39 c-18 22 -33 40 -34 40 0 0 -25 -25 -55 -55z"/>
<path d="M410 246 c0 -2 8 -10 18 -17 15 -13 16 -12 3 4 -13 16 -21 21 -21 13z"/>
</g>
</svg>
